<mxfile host="app.diagrams.net" modified="2023-10-13T04:49:14.347Z" agent="Mozilla/5.0 (Windows NT 10.0; Win64; x64) AppleWebKit/537.36 (KHTML, like Gecko) Chrome/116.0.5845.967 YaBrowser/23.9.1.967 Yowser/2.5 Safari/537.36" etag="3FujItZcY4W5T0ypgW2N" version="22.0.4" type="device">
  <diagram name="Page-1" id="13e1069c-82ec-6db2-03f1-153e76fe0fe0">
    <mxGraphModel dx="1242" dy="686" grid="1" gridSize="10" guides="1" tooltips="1" connect="1" arrows="1" fold="1" page="1" pageScale="1" pageWidth="1100" pageHeight="850" background="none" math="0" shadow="0">
      <root>
        <mxCell id="0" />
        <mxCell id="1" parent="0" />
        <mxCell id="D-9H0z3Ce2Hext_0MIPE-1" value="" style="shape=umlActor;verticalLabelPosition=bottom;verticalAlign=top;html=1;outlineConnect=0;" parent="1" vertex="1">
          <mxGeometry x="70" y="60" width="30" height="60" as="geometry" />
        </mxCell>
        <mxCell id="D-9H0z3Ce2Hext_0MIPE-2" value="Веб пользователь" style="text;html=1;align=center;verticalAlign=middle;resizable=0;points=[];autosize=1;strokeColor=none;fillColor=none;" parent="1" vertex="1">
          <mxGeometry x="25" y="30" width="120" height="30" as="geometry" />
        </mxCell>
        <mxCell id="D-9H0z3Ce2Hext_0MIPE-4" value="Петля" style="shape=umlFrame;whiteSpace=wrap;html=1;pointerEvents=0;" parent="1" vertex="1">
          <mxGeometry x="40" y="140" width="530" height="340" as="geometry" />
        </mxCell>
        <mxCell id="D-9H0z3Ce2Hext_0MIPE-5" value="" style="html=1;points=[[0,0,0,0,5],[0,1,0,0,-5],[1,0,0,0,5],[1,1,0,0,-5]];perimeter=orthogonalPerimeter;outlineConnect=0;targetShapes=umlLifeline;portConstraint=eastwest;newEdgeStyle={&quot;curved&quot;:0,&quot;rounded&quot;:0};" parent="1" vertex="1">
          <mxGeometry x="80" y="190" width="10" height="440" as="geometry" />
        </mxCell>
        <mxCell id="D-9H0z3Ce2Hext_0MIPE-6" value="" style="html=1;points=[[0,0,0,0,5],[0,1,0,0,-5],[1,0,0,0,5],[1,1,0,0,-5]];perimeter=orthogonalPerimeter;outlineConnect=0;targetShapes=umlLifeline;portConstraint=eastwest;newEdgeStyle={&quot;curved&quot;:0,&quot;rounded&quot;:0};" parent="1" vertex="1">
          <mxGeometry x="450" y="200" width="10" height="30" as="geometry" />
        </mxCell>
        <mxCell id="D-9H0z3Ce2Hext_0MIPE-8" value="" style="endArrow=open;endFill=1;endSize=12;html=1;rounded=0;entryX=0;entryY=0;entryDx=0;entryDy=5;entryPerimeter=0;" parent="1" source="D-9H0z3Ce2Hext_0MIPE-5" target="D-9H0z3Ce2Hext_0MIPE-6" edge="1">
          <mxGeometry width="160" relative="1" as="geometry">
            <mxPoint x="90" y="214.57999999999998" as="sourcePoint" />
            <mxPoint x="210" y="215" as="targetPoint" />
          </mxGeometry>
        </mxCell>
        <mxCell id="D-9H0z3Ce2Hext_0MIPE-9" value="Поиск предметов" style="text;html=1;align=center;verticalAlign=middle;resizable=0;points=[];autosize=1;strokeColor=none;fillColor=none;" parent="1" vertex="1">
          <mxGeometry x="230" y="180" width="120" height="30" as="geometry" />
        </mxCell>
        <mxCell id="D-9H0z3Ce2Hext_0MIPE-10" value="" style="endArrow=block;dashed=1;endFill=0;endSize=12;html=1;rounded=0;exitX=0;exitY=1;exitDx=0;exitDy=0;exitPerimeter=0;" parent="1" source="D-9H0z3Ce2Hext_0MIPE-6" target="D-9H0z3Ce2Hext_0MIPE-5" edge="1">
          <mxGeometry width="160" relative="1" as="geometry">
            <mxPoint x="260" y="310" as="sourcePoint" />
            <mxPoint x="420" y="310" as="targetPoint" />
          </mxGeometry>
        </mxCell>
        <mxCell id="D-9H0z3Ce2Hext_0MIPE-11" value="Результаты поиска" style="text;html=1;align=center;verticalAlign=middle;resizable=0;points=[];autosize=1;strokeColor=none;fillColor=none;" parent="1" vertex="1">
          <mxGeometry x="225" y="230" width="130" height="30" as="geometry" />
        </mxCell>
        <mxCell id="D-9H0z3Ce2Hext_0MIPE-12" value="выбирать" style="shape=umlFrame;whiteSpace=wrap;html=1;pointerEvents=0;" parent="1" vertex="1">
          <mxGeometry x="70" y="270" width="420" height="70" as="geometry" />
        </mxCell>
        <mxCell id="D-9H0z3Ce2Hext_0MIPE-13" value="" style="html=1;points=[[0,0,0,0,5],[0,1,0,0,-5],[1,0,0,0,5],[1,1,0,0,-5]];perimeter=orthogonalPerimeter;outlineConnect=0;targetShapes=umlLifeline;portConstraint=eastwest;newEdgeStyle={&quot;curved&quot;:0,&quot;rounded&quot;:0};" parent="1" vertex="1">
          <mxGeometry x="450" y="310" width="10" height="20" as="geometry" />
        </mxCell>
        <mxCell id="D-9H0z3Ce2Hext_0MIPE-15" value="" style="endArrow=open;endFill=1;endSize=12;html=1;rounded=0;entryX=0.433;entryY=-0.158;entryDx=0;entryDy=0;entryPerimeter=0;" parent="1" target="D-9H0z3Ce2Hext_0MIPE-13" edge="1">
          <mxGeometry width="160" relative="1" as="geometry">
            <mxPoint x="90" y="307" as="sourcePoint" />
            <mxPoint x="420" y="310" as="targetPoint" />
          </mxGeometry>
        </mxCell>
        <mxCell id="D-9H0z3Ce2Hext_0MIPE-17" value="Посмотреть описание предмета" style="text;html=1;align=center;verticalAlign=middle;resizable=0;points=[];autosize=1;strokeColor=none;fillColor=none;" parent="1" vertex="1">
          <mxGeometry x="175" y="280" width="200" height="30" as="geometry" />
        </mxCell>
        <mxCell id="D-9H0z3Ce2Hext_0MIPE-18" value="выбирать" style="shape=umlFrame;whiteSpace=wrap;html=1;pointerEvents=0;" parent="1" vertex="1">
          <mxGeometry x="70" y="360" width="420" height="70" as="geometry" />
        </mxCell>
        <mxCell id="D-9H0z3Ce2Hext_0MIPE-19" value="" style="html=1;points=[[0,0,0,0,5],[0,1,0,0,-5],[1,0,0,0,5],[1,1,0,0,-5]];perimeter=orthogonalPerimeter;outlineConnect=0;targetShapes=umlLifeline;portConstraint=eastwest;newEdgeStyle={&quot;curved&quot;:0,&quot;rounded&quot;:0};" parent="1" vertex="1">
          <mxGeometry x="450" y="405" width="10" height="20" as="geometry" />
        </mxCell>
        <mxCell id="D-9H0z3Ce2Hext_0MIPE-20" value="" style="endArrow=open;endFill=1;endSize=12;html=1;rounded=0;entryX=0.433;entryY=-0.158;entryDx=0;entryDy=0;entryPerimeter=0;" parent="1" target="D-9H0z3Ce2Hext_0MIPE-19" edge="1">
          <mxGeometry width="160" relative="1" as="geometry">
            <mxPoint x="90" y="402" as="sourcePoint" />
            <mxPoint x="420" y="405" as="targetPoint" />
          </mxGeometry>
        </mxCell>
        <mxCell id="D-9H0z3Ce2Hext_0MIPE-21" value="Добавить в корзину покупок" style="text;html=1;align=center;verticalAlign=middle;resizable=0;points=[];autosize=1;strokeColor=none;fillColor=none;" parent="1" vertex="1">
          <mxGeometry x="185" y="375" width="180" height="30" as="geometry" />
        </mxCell>
        <mxCell id="D-9H0z3Ce2Hext_0MIPE-23" value="" style="shape=partialRectangle;whiteSpace=wrap;html=1;bottom=1;right=1;left=1;top=0;fillColor=none;routingCenterX=-0.5;direction=west;" parent="1" vertex="1">
          <mxGeometry x="50" y="240" width="80" height="20" as="geometry" />
        </mxCell>
        <mxCell id="D-9H0z3Ce2Hext_0MIPE-24" value="" style="shape=partialRectangle;whiteSpace=wrap;html=1;bottom=1;right=1;left=1;top=0;fillColor=none;routingCenterX=-0.5;direction=east;" parent="1" vertex="1">
          <mxGeometry x="45" y="440" width="80" height="20" as="geometry" />
        </mxCell>
        <mxCell id="D-9H0z3Ce2Hext_0MIPE-25" value="ссылка" style="shape=umlFrame;whiteSpace=wrap;html=1;pointerEvents=0;" parent="1" vertex="1">
          <mxGeometry x="70" y="560" width="420" height="70" as="geometry" />
        </mxCell>
        <mxCell id="D-9H0z3Ce2Hext_0MIPE-26" value="выбирать" style="shape=umlFrame;whiteSpace=wrap;html=1;pointerEvents=0;" parent="1" vertex="1">
          <mxGeometry x="40" y="515" width="530" height="135" as="geometry" />
        </mxCell>
        <mxCell id="D-9H0z3Ce2Hext_0MIPE-27" value="Проверка" style="text;html=1;align=center;verticalAlign=middle;resizable=0;points=[];autosize=1;strokeColor=none;fillColor=none;" parent="1" vertex="1">
          <mxGeometry x="225" y="580" width="80" height="30" as="geometry" />
        </mxCell>
        <mxCell id="D-9H0z3Ce2Hext_0MIPE-29" value="Онлайн покупка" style="shape=ext;double=1;whiteSpace=wrap;html=1;aspect=fixed;" parent="1" vertex="1">
          <mxGeometry x="410" y="10" width="90" height="90" as="geometry" />
        </mxCell>
        <mxCell id="D-9H0z3Ce2Hext_0MIPE-30" value="" style="endArrow=none;dashed=1;html=1;dashPattern=1 3;strokeWidth=2;rounded=0;entryX=0.567;entryY=1.017;entryDx=0;entryDy=0;entryPerimeter=0;" parent="1" target="D-9H0z3Ce2Hext_0MIPE-29" edge="1">
          <mxGeometry width="50" height="50" relative="1" as="geometry">
            <mxPoint x="460" y="680" as="sourcePoint" />
            <mxPoint x="370" y="280" as="targetPoint" />
          </mxGeometry>
        </mxCell>
      </root>
    </mxGraphModel>
  </diagram>
</mxfile>
